<?xml version="1.0" standalone="no"?>
<!DOCTYPE svg PUBLIC "-//W3C//DTD SVG 20010904//EN"
 "http://www.w3.org/TR/2001/REC-SVG-20010904/DTD/svg10.dtd">
<svg version="1.0" xmlns="http://www.w3.org/2000/svg"
 width="418.000000pt" height="418.000000pt" viewBox="0 0 418.000000 418.000000"
 preserveAspectRatio="xMidYMid meet">
<metadata>
Created by potrace 1.11, written by Peter Selinger 2001-2013
</metadata>
<g transform="translate(0.000000,418.000000) scale(0.100000,-0.100000)"
fill="#000000" stroke="none">
<path d="M2020 4157 c-3 -3 -44 -7 -91 -11 -214 -15 -486 -93 -714 -206 -410
-202 -709 -495 -923 -900 -99 -187 -184 -442 -213 -633 -6 -40 -12 -83 -15
-97 -10 -54 -12 -350 -3 -435 47 -465 251 -912 566 -1246 272 -287 647 -498
1058 -596 104 -25 128 -27 415 -31 298 -3 308 -3 435 23 546 110 1026 429
1326 883 123 185 235 436 288 647 l31 120 0 395 c0 384 -1 398 -24 495 -37
150 -79 264 -161 430 -180 365 -418 631 -752 841 -230 144 -565 269 -803 299
-30 4 -64 9 -75 11 -30 6 -340 16 -345 11z m376 -627 c174 -31 337 -92 487
-182 l69 -41 -314 -314 c-172 -172 -317 -312 -323 -310 -5 2 -10 15 -11 28 0
22 -43 115 -44 96 0 -5 -7 -1 -16 7 -8 9 -20 14 -25 11 -5 -4 -9 -2 -9 3 0 5
-13 8 -30 7 -16 -1 -30 1 -30 5 0 4 -22 7 -50 6 -27 0 -50 3 -50 7 0 5 -5 5
-11 1 -18 -11 -53 -11 -61 1 -5 7 -8 7 -8 -1 0 -8 -61 -11 -95 -4 -5 1 -12 1
-15 0 -3 -1 -23 -3 -45 -5 -65 -4 -129 -16 -142 -27 -7 -6 -13 -7 -13 -4 0 4
-18 -11 -40 -34 -41 -41 -44 -70 -9 -70 10 0 19 -5 19 -12 0 -6 3 -8 6 -5 18
17 83 -45 96 -92 12 -40 21 -111 21 -158 0 -24 3 -43 7 -43 9 0 6 -32 -4 -48
-4 -6 -3 -12 1 -12 8 0 8 -77 0 -135 -3 -16 0 -36 7 -44 8 -11 8 -13 -1 -7 -9
5 -13 -1 -13 -19 0 -18 -20 -46 -69 -96 l-69 -71 -31 31 c-17 17 -31 35 -31
41 0 5 -5 10 -11 10 -5 0 -8 4 -5 9 3 5 -1 11 -9 15 -8 3 -15 11 -15 18 0 7
-9 24 -20 38 -11 14 -20 33 -20 43 0 9 -4 17 -9 17 -5 0 -12 10 -16 23 -8 25
-8 24 -22 57 -7 14 -17 39 -24 57 -7 17 -17 29 -23 26 -5 -3 -6 -2 -3 4 3 5
-1 22 -9 37 -7 16 -14 35 -14 42 0 8 -4 14 -10 14 -5 0 -10 9 -10 19 0 11 -4
23 -10 26 -5 3 -10 17 -10 30 0 12 -7 25 -15 29 -8 3 -12 12 -9 19 3 8 -2 22
-11 31 -9 9 -14 16 -11 16 9 0 -30 98 -46 113 -30 30 -58 35 -198 36 -80 0
-156 0 -168 1 l-24 0 27 48 c177 306 474 549 811 661 229 76 483 94 730 51z
m1014 -712 c35 -63 37 -72 9 -58 -11 6 -30 10 -42 8 -12 -1 -27 1 -34 5 -6 4
-14 3 -17 -1 -3 -5 -17 -7 -30 -5 -24 5 -23 6 22 54 26 27 50 49 54 49 4 0 21
-24 38 -52z m125 -274 c57 -173 70 -259 70 -464 0 -181 -6 -238 -40 -370 -39
-156 -154 -418 -176 -404 -5 3 -7 9 -4 14 3 5 -3 13 -12 19 -10 6 -14 11 -10
11 4 0 2 6 -5 14 -7 8 -17 11 -22 8 -5 -3 -6 0 -2 7 4 6 0 14 -8 17 -9 3 -14
10 -11 14 2 4 -7 16 -20 26 -14 10 -25 25 -25 32 0 7 -4 10 -10 7 -5 -3 -10 1
-10 9 0 8 -8 20 -17 25 -10 6 -15 11 -11 11 3 0 -8 15 -25 32 -18 18 -35 31
-39 30 -5 -1 -8 1 -8 6 0 4 -14 23 -30 42 -16 19 -30 39 -30 43 0 5 -4 6 -9 2
-5 -3 -12 4 -16 15 -3 11 -11 20 -17 20 -6 0 -9 3 -5 6 3 4 -1 20 -9 35 -20
40 -8 139 18 139 5 0 7 4 3 9 -3 5 1 16 9 23 7 8 17 24 20 36 4 12 12 20 17
17 5 -4 9 1 9 10 0 10 14 34 30 55 17 21 30 43 30 49 0 7 6 14 14 17 8 3 20
19 26 35 7 16 17 29 22 29 5 0 6 5 3 10 -3 6 -2 10 2 10 5 0 19 20 33 45 14
25 28 45 32 45 5 0 8 6 8 13 0 7 8 22 18 33 10 11 16 26 14 33 -3 8 0 11 7 7
6 -4 11 -2 11 5 0 7 8 21 18 32 12 15 13 19 2 13 -8 -4 -7 -1 3 7 10 9 19 19
19 24 3 24 11 43 19 43 5 0 9 7 9 15 0 8 4 15 10 15 5 0 7 7 4 15 -4 8 -1 15
6 15 6 0 8 5 5 10 -4 6 -2 16 3 23 9 11 16 38 22 82 2 18 29 -41 55 -121z
m-2809 -72 c-2 -4 4 -27 14 -50 11 -23 17 -42 14 -42 -3 0 5 -14 17 -32 13
-17 18 -29 12 -25 -8 5 -8 0 0 -18 7 -14 15 -25 20 -25 4 0 7 -4 7 -10 0 -5
12 -35 27 -67 15 -32 27 -61 28 -65 0 -4 6 -13 13 -19 6 -7 12 -21 12 -31 0
-10 4 -18 8 -18 5 0 15 -18 22 -40 7 -22 17 -40 22 -40 5 0 6 -4 3 -10 -3 -5
-1 -10 4 -10 6 0 10 -3 9 -7 -1 -9 13 -46 21 -53 6 -5 34 -56 74 -132 10 -21
23 -38 29 -38 5 0 7 -4 4 -9 -4 -5 5 -23 19 -39 14 -16 25 -34 25 -39 0 -5 9
-19 20 -31 12 -12 18 -22 15 -22 -4 0 1 -7 9 -16 9 -8 16 -19 16 -24 0 -17
-281 -292 -293 -287 -36 14 -159 286 -196 432 -46 186 -57 450 -26 617 18 95
29 135 37 146 11 13 22 17 14 4z m1715 -1054 c0 -10 2 -10 5 -1 4 8 11 7 24
-5 10 -9 25 -22 32 -28 7 -6 29 -30 48 -53 19 -23 44 -52 55 -64 22 -25 25
-31 25 -48 0 -5 5 -7 10 -4 6 3 10 0 10 -8 0 -8 7 -18 16 -21 8 -3 12 -11 8
-17 -5 -8 -3 -9 5 -5 8 5 14 0 18 -13 3 -12 12 -21 20 -21 8 0 12 -4 9 -9 -3
-5 1 -11 9 -15 8 -3 15 -13 15 -21 0 -9 4 -14 9 -10 5 3 16 -4 24 -15 7 -11
17 -17 20 -13 4 3 7 1 7 -5 0 -7 7 -12 16 -12 8 0 22 -7 31 -15 8 -8 19 -13
24 -10 5 4 9 2 9 -3 0 -5 59 -8 131 -8 l131 1 -49 -43 c-127 -113 -333 -229
-507 -287 -179 -60 -249 -70 -466 -70 -209 1 -301 15 -463 69 -101 34 -288
124 -337 163 -5 5 259 271 281 283 12 7 23 4 39 -10 12 -10 35 -22 51 -25 16
-4 29 -11 29 -16 0 -6 4 -8 9 -4 5 3 13 0 16 -6 4 -5 13 -8 20 -5 8 3 15 1 17
-4 2 -5 15 -11 30 -14 15 -2 33 -8 40 -12 7 -4 25 -7 40 -6 14 1 30 -3 33 -8
5 -8 11 -7 21 1 8 6 14 8 14 3 0 -11 62 -10 78 0 7 4 12 4 12 -1 0 -10 52 -9
68 1 7 4 12 2 12 -5 0 -8 4 -8 15 1 9 8 15 8 15 2 0 -7 10 -8 30 -2 17 5 30 6
30 2 0 -4 7 2 16 13 8 11 17 19 19 18 15 -8 25 0 25 18 0 11 4 18 8 15 4 -2 8
29 7 70 0 41 2 74 5 74 3 0 5 17 5 38 -1 20 3 42 8 49 5 7 6 17 2 23 -3 5 -2
10 4 10 5 0 12 9 16 20 8 26 63 80 81 80 8 0 14 -6 15 -12z"/>
</g>
</svg>
